<svg width="800" height="800" viewBox="0 0 800 800" fill="none" xmlns="http://www.w3.org/2000/svg">
<path d="M799.412 400.87C792.221 325.326 721.357 269.253 642.578 267.783C605.891 267.095 569.293 274.302 535.157 286.795C529.543 288.847 523.999 291.042 518.515 293.324C525.495 282.395 531.863 271.095 537.487 259.355C566.853 198.032 578.493 120.665 540.219 60.1243C522.563 32.1877 494.472 10.5887 460.667 3.3349C426.731 -3.93797 391.108 0.910608 360.094 15.6759C296.511 45.9317 265.277 116.312 264.805 181.129C264.594 210.697 269.877 239.942 278.524 268.26C272.106 262.485 265.548 256.845 258.869 251.357C217.09 217.025 153.236 175.011 93.3985 181.911C10.673 191.446 -5.2856 282.71 1.34288 347.593C4.88812 382.297 18.2053 414.7 46.758 437.683C72.4183 458.337 103.341 470.965 135.108 480.719C146.456 484.203 157.865 487.41 169.415 490.092C167.155 491.628 164.906 493.194 162.676 494.788C54.4109 572.422 -8.25837 835.896 206.253 786.494C288.547 767.549 339.265 713.813 367.084 639.854C355.354 671.035 436.061 744.881 457.563 761.66C525.837 814.927 644.567 822.763 666.702 719.55C681.767 649.322 638.993 586.5 586.507 541.145C580.642 536.077 574.667 531.123 568.58 526.275C602.225 529.09 635.95 528.25 669.534 524.414C732.987 517.169 798.036 484.68 799.945 417.363C800.105 411.78 799.914 406.272 799.402 400.87H799.412Z" fill="#1B1C21"/>
</svg>
